<svg t="1679275048341" class="icon" viewBox="0 0 1210 1024" version="1.1" xmlns="http://www.w3.org/2000/svg" p-id="4874" width="200" height="200"><path d="M186.181818 74.472727A111.709091 111.709091 0 0 0 74.472727 186.181818v651.636364A111.709091 111.709091 0 0 0 186.181818 949.527273h837.818182a111.709091 111.709091 0 0 0 111.709091-111.709091V186.181818A111.709091 111.709091 0 0 0 1024 74.472727H186.181818zM186.181818 0h837.818182a186.181818 186.181818 0 0 1 186.181818 186.181818v651.636364a186.181818 186.181818 0 0 1-186.181818 186.181818H186.181818a186.181818 186.181818 0 0 1-186.181818-186.181818V186.181818a186.181818 186.181818 0 0 1 186.181818-186.181818z m93.090909 386.466909a37.236364 37.236364 0 1 1 0-74.472727l335.406546-0.279273a37.236364 37.236364 0 0 1 0.093091 74.472727L279.272727 386.466909z m0 186.181818a37.236364 37.236364 0 1 1 0-74.472727l335.406546-0.279273a37.236364 37.236364 0 1 1 0.093091 74.472728L279.272727 572.648727z m0 186.181818a37.236364 37.236364 0 1 1 0-74.472727l335.406546-0.279273a37.236364 37.236364 0 1 1 0.093091 74.472728L279.272727 758.830545z m663.691637-79.639272l-3.444364 4.049454-144.616727 11.357091-7.819637-10.705454-0.186181-305.803637 153.460363 1.768728 2.606546 299.287272z m-2.932364-351.976728l-153.227636 4.00291V220.113455l21.410909-23.877819 113.012363-0.232727 17.92 24.808727 0.884364 106.402909zM875.985455 822.458182l-11.264 22.714182-17.966546-31.557819-31.325091-75.962181 98.071273-9.588364-37.515636 94.440727z" fill="#979797" p-id="4875"></path></svg>
